PathFileType	4	(X/Y/Z)	RBDS05\RBDS05runT35.trc
DataRate	CameraRate	NumFrames	NumMarkers	Units	OrigDataRate	OrigDataStartFrame	OrigNumFrames
150.000000	150.000000	4	33	mm	150.000000	3375	4500
Frame#	Time	L.ASIS			L.Heel.Bottom			L.Heel.Lateral			L.Heel.Top			L.Iliac.Crest			L.MT1			L.MT5			L.PSIS			L.Shank.Bottom.Lateral			L.Shank.Bottom.Medial			L.Shank.Top.Lateral			L.Shank.Top.Medial			L.Thigh.Bottom.Lateral			L.Thigh.Bottom.Medial			L.Thigh.Top.Lateral			L.Thigh.Top.Medial			R.ASIS			R.ASY			R.Heel.Bottom			R.Heel.Lateral			R.Heel.Top			R.Iliac.Crest			R.MT1			R.MT5			R.PSIS			R.Shank.Bottom.Lateral			R.Shank.Bottom.Medial			R.Shank.Top.Lateral			R.Shank.Top.Medial			R.Thigh.Bottom.Lateral			R.Thigh.Bottom.Medial			R.Thigh.Top.Lateral			R.Thigh.Top.Medial			
		X1	Y1	Z1	X2	Y2	Z2	X3	Y3	Z3	X4	Y4	Z4	X5	Y5	Z5	X6	Y6	Z6	X7	Y7	Z7	X8	Y8	Z8	X9	Y9	Z9	X10	Y10	Z10	X11	Y11	Z11	X12	Y12	Z12	X13	Y13	Z13	X14	Y14	Z14	X15	Y15	Z15	X16	Y16	Z16	X17	Y17	Z17	X18	Y18	Z18	X19	Y19	Z19	X20	Y20	Z20	X21	Y21	Z21	X22	Y22	Z22	X23	Y23	Z23	X24	Y24	Z24	X25	Y25	Z25	X26	Y26	Z26	X27	Y27	Z27	X28	Y28	Z28	X29	Y29	Z29	X30	Y30	Z30	X31	Y31	Z31	X32	Y32	Z32	X33	Y33	Z33	

3376	22.5	2335.194806223903	958.2153697046753	950.1370000245375	2140.110379113968	156.5061351643908	1017.562147364225	2176.623151553239	167.2896677176339	976.3946160804683	2169.932649428076	196.7207013678179	1025.098426955257	2270.743175215373	1031.7809176782	903.2756349049279	2334.204094089926	85.75278203169275	1045.957359752273	2307.461002411627	103.1525458180542	946.0905004035843	2183.098041817916	1009.119767956061	1001.24274079684	2268.913614732865	259.1100326550671	961.9154719050515	2232.860531011764	278.0078453740658	992.7715067116449	2299.438087041832	332.7053765843286	946.4861542671445	2264.739301444526	355.4546542917355	979.5815781120903	2398.268526457122	643.3371497609509	911.9278258445892	2341.16675958416	605.4879266523204	936.7394580360067	2330.606958598407	729.4196461140473	897.4852545254075	2277.39346596226	695.3123206069228	923.8955104609788	2324.40149598293	945.758768296545	1171.268908376319	1937.915351492662	100.6464840205344	1093.394388652094	1768.578562192094	161.356116170599	1084.814044282386	1797.450438983112	150.1607786366779	1123.14735901624	1805.935498653302	191.0519960574402	1089.8464910067	2290.898828495722	1003.840890692609	1193.13950762433	1934.800646690767	50.77372017220914	1039.380165166672	1906.402731039199	54.96303280860848	1143.06681424398	2185.676691241513	1007.369624948808	1096.229261771354	1902.786920002961	246.8658009321998	1148.12721275257	1870.67751980967	268.2125028769215	1109.204716417859	1934.81261788433	320.835021506864	1159.889135919279	1902.898212481418	340.6082889985339	1121.381440750878	2132.124535672086	591.5377795526907	1192.095544256365	2069.002399229437	611.6685796038665	1159.588805512267	2154.886645033385	698.6554280268178	1209.953122551577	2095.750918888408	717.4413043929388	1176.218233428544	
3377	22.50666666666667	2335.935204683012	961.6255985057678	950.6603844756631	2167.975360946004	138.8724381245283	1017.952755379141	2203.958844033398	151.7377459463534	976.7822377208515	2194.541138545418	181.4255505310101	1024.953139714272	2271.545841442653	1036.083820885607	903.4994882829461	2366.971103300972	84.15256104082592	1048.987995393122	2339.713421698137	97.38266838835358	948.5719756343658	2184.351690035823	1013.137264972537	1001.227776556693	2289.145688135857	250.9032141112519	962.2869091539951	2251.630091041171	267.4463538305537	992.7491874043108	2314.26581513569	326.300810955385	946.2866665178362	2277.795935023199	346.8484891833953	978.9873439233161	2398.776007241329	647.143949871123	912.5139345735543	2341.413675121983	609.0827073865115	936.484262812467	2331.204837870016	733.3276360831063	898.1674995781931	2277.839449142905	699.1478003497696	924.1782515106105	2324.946309577191	948.0211791529209	1171.503847926388	1923.210451557513	104.8156241881702	1094.429212447968	1758.293756644391	177.1106154392284	1084.527994673723	1786.044804293474	163.7957867117645	1122.993999828391	1797.6442572416	204.1153192797895	1090.097016497761	2292.061589598993	1007.164361415667	1192.924964839381	1917.360440446707	54.6991383933583	1040.09013954194	1888.020614969953	59.65654456895164	1143.528883131556	2186.824790545018	1010.818724437573	1096.549737536329	1892.684604291215	255.0981457254008	1148.550057340243	1861.361005161655	276.4396505742012	1108.904044388586	1925.407487785516	328.8648685685933	1159.770127830856	1894.396694523791	348.5570698867537	1120.546569418989	2126.76383814073	596.7054654725313	1191.794081519845	2064.520371050424	617.9705514126706	1158.373305553112	2151.352082354585	703.4249934836491	1209.751987926322	2093.162729684814	723.2651935162997	1174.998064163126	
3378	22.51333333333334	2336.470226211952	964.4970888841241	951.0779201535848	2196.709470845801	122.2811413592156	1018.786901395999	2231.894837777465	137.107899932606	977.4920865606921	2219.811731322862	166.8542003255739	1025.108594735692	2272.313515235879	1039.791022706429	903.6391460601013	2399.196092102899	84.09427274035977	1051.831391410485	2371.580441761354	92.99208084806749	950.9349652327404	2185.396925224327	1016.664487814405	1001.169944424112	2309.137187602003	243.218122193811	962.6844172153416	2270.492028123661	257.2823826627567	992.9724982306185	2328.706403249806	320.006010115433	946.1350294107973	2290.785752756173	338.2098403271012	978.6423492546944	2398.261390916829	649.8700609091755	912.8583662062929	2340.651564587048	611.8343706408087	936.3123960164627	2330.996518359691	736.3415901723617	898.723954718611	2277.503109995305	702.298180365006	924.6193530121618	2325.447935023298	950.2164999649068	1171.659281568391	1908.967638092168	109.7365609368366	1095.552129029406	1749.066832756593	192.8234264856388	1083.737147608037	1775.413744021781	177.6307245818402	1122.455550830213	1790.12161309278	217.1446411193162	1089.97017642175	2293.111497666112	1010.313055834217	1192.662722323872	1900.628914856453	59.46735539788519	1040.966259904159	1870.210698910023	65.15849615490468	1143.985447985072	2187.832605546931	1013.997357285966	1096.784766304024	1883.312825939076	263.2666064406151	1148.744930732421	1852.804978277997	284.7384546706384	1108.484135839621	1916.96076872613	336.6761107434224	1159.551581439351	1886.899127976272	356.4259520652978	1119.678459067562	2122.559571291989	601.2935592415332	1191.556594951311	2061.08127312525	623.4399653024201	1157.32160074411	2148.55124508001	707.6798988669816	1209.607548917433	2091.202270903306	728.3333718590103	1173.97844098576	
3379	22.52	2336.815735175453	966.8115456424166	951.3711515858937	2226.027814822281	106.9004885806188	1020.092906203842	2260.123943973182	123.5813445607647	978.5473703542136	2245.473856818276	153.1539032658528	1025.620292248524	2273.030104786346	1042.836556112989	903.6907752003185	2430.562335727837	85.62016334993919	1054.317859886034	2402.713700510033	90.12226548282941	953.0550228401877	2186.219937537795	1019.654654046175	1001.073890088953	2328.641061645674	236.1517735727101	963.1350707478865	2289.229617086198	247.6539785752202	993.4921459641434	2342.575721057203	313.9130439758449	946.0873465869832	2303.55928280473	329.6696514512508	978.6272771935816	2396.785956405672	651.5070497748318	912.9354705330916	2338.955701126372	613.7414877776165	936.2350610617253	2330.033794941653	738.435804632197	899.1077322620923	2276.441250315743	704.7344509063726	925.1769025467079	2325.911817012751	952.316304360766	1171.729723249859	1895.185802102578	115.3753838418951	1096.755799669953	1740.751509865097	208.3096373363698	1082.372375990317	1765.453471442968	191.5315940595918	1121.470180217394	1783.209548621595	230.0212910271228	1089.387328100753	2294.063699689736	1013.22863943396	1192.359706589267	1884.632791252886	65.02093686772511	1042.015655815181	1852.978168561175	71.50867552516449	1144.428553982998	2188.698074178842	1016.852718755781	1096.938303020459	1874.582666388936	271.3897255592681	1148.676217996664	1844.94151510745	293.1240555145156	1107.89828474415	1909.39594938007	344.2715607941445	1159.208544138854	1880.341630552717	364.2134766381346	1118.744642652339	2119.520149129577	605.2070313478685	1191.395952799989	2058.665374341758	627.9935664484245	1156.478236095134	2146.502960008814	711.3362128411515	1209.540586665815	2089.85005325019	732.5748511460092	1173.220716714847	
